<svg width="320" height="320" viewBox="0 0 320 320" fill="none" xmlns="http://www.w3.org/2000/svg">
<path d="M97.8552 224.57C62.5922 189.417 62.6142 132.4 97.9045 97.22C131.522 63.7069 185.017 62.0998 220.495 92.4111L215.508 97.3821C182.789 69.7956 133.742 71.3952 102.871 102.171C70.3251 134.615 70.3048 187.197 102.825 219.616C135.345 252.035 188.092 252.014 220.637 219.57C251.991 188.314 253.157 138.37 224.124 105.767L229.101 100.805C260.872 136.15 259.702 190.528 225.603 224.521C190.313 259.701 133.118 259.723 97.8552 224.57Z" fill="#547BBC"/>
<path d="M266.077 221.089C232.893 278.571 159.388 298.261 101.9 265.067C44.4124 231.873 24.7106 158.365 57.8949 100.882C62.7596 92.4557 68.4921 84.8426 74.9123 78.0879L82.6437 85.8193C76.8819 91.9115 71.7331 98.7667 67.3574 106.346C37.1899 158.603 55.1005 225.429 107.362 255.605C159.624 285.781 226.447 267.881 256.615 215.625C286.782 163.368 268.87 96.5423 216.609 66.366C174.334 41.9565 122.533 49.0062 88.3116 80.2503L80.5746 72.5133C118.214 37.8581 175.416 29.966 222.071 56.9045C279.559 90.0984 299.261 163.606 266.077 221.089Z" fill="#547BBC"/>
<path d="M269.334 52.6664C328.889 112.222 328.889 208.78 269.334 268.335C209.896 327.772 113.605 327.887 54.0219 268.686L63.9214 258.786C118.037 312.521 205.464 312.405 259.434 258.435C313.522 204.347 313.522 116.654 259.434 62.5659C205.346 8.4781 117.653 8.4781 63.5651 62.5659C11.7352 114.396 9.57425 197.082 57.0768 251.488L47.1552 261.41C-5.80265 201.516 -3.63347 109.965 53.6656 52.6664C113.221 -6.88879 209.779 -6.88879 269.334 52.6664Z" fill="#547BBC"/>
</svg>
